<svg width="314" height="13" viewBox="0 0 314 13" fill="none" xmlns="http://www.w3.org/2000/svg">
<path d="M2.25 5.27273C2.25 4.76799 2.37311 4.30788 2.61932 3.8924C2.86553 3.47692 3.19638 3.14607 3.61186 2.89986C4.02734 2.65365 4.48745 2.53054 4.99219 2.53054C5.42921 2.53054 5.83239 2.62441 6.20171 2.81214C6.5741 2.99988 6.88187 3.25687 7.125 3.5831C7.36813 3.90625 7.51894 4.27249 7.57742 4.68182H6.46023C6.39867 4.36482 6.22786 4.1063 5.9478 3.90625C5.66773 3.70312 5.3492 3.60156 4.99219 3.60156C4.68442 3.60156 4.40436 3.67696 4.15199 3.82777C3.89962 3.97857 3.69804 4.18016 3.54723 4.43253C3.39643 4.6849 3.32102 4.96496 3.32102 5.27273C3.32102 5.58049 3.39643 5.86056 3.54723 6.11293C3.69804 6.36529 3.89962 6.56688 4.15199 6.71768C4.40436 6.86849 4.68442 6.94389 4.99219 6.94389C5.3492 6.94389 5.65081 6.84387 5.89702 6.64382C6.14631 6.4407 6.30327 6.18063 6.3679 5.86364H7.48509C7.42661 6.27296 7.2835 6.64074 7.05575 6.96697C6.82801 7.29013 6.53563 7.54557 6.17862 7.73331C5.82469 7.92105 5.42921 8.01491 4.99219 8.01491C4.48745 8.01491 4.02734 7.89181 3.61186 7.6456C3.19638 7.39938 2.86553 7.06854 2.61932 6.65305C2.37311 6.23757 2.25 5.77746 2.25 5.27273ZM4.94602 10.1477C4.27509 10.1477 3.64418 10.0215 3.05327 9.76918C2.46544 9.51681 1.94685 9.1675 1.49751 8.72124C1.05125 8.2719 0.700402 7.75331 0.444957 7.16548C0.19259 6.57765 0.0679451 5.94673 0.0710228 5.27273C0.0741004 4.59872 0.201823 3.9678 0.45419 3.37997C0.709635 2.79214 1.06049 2.27509 1.50675 1.82884C1.95301 1.3795 2.47005 1.02865 3.05788 0.776278C3.64572 0.523911 4.27509 0.397727 4.94602 0.397727C5.62003 0.397727 6.25095 0.523911 6.83878 0.776278C7.42969 1.02865 7.94673 1.3795 8.38992 1.82884C8.83617 2.27509 9.18549 2.79214 9.43786 3.37997C9.69022 3.9678 9.81795 4.59872 9.82102 5.27273C9.8241 5.94673 9.69946 6.57765 9.44709 7.16548C9.19472 7.75331 8.84541 8.2719 8.39915 8.72124C7.95289 9.1675 7.4343 9.51681 6.84339 9.76918C6.25249 10.0215 5.62003 10.1477 4.94602 10.1477ZM4.94602 9.0767C5.4723 9.0767 5.96626 8.97822 6.42791 8.78125C6.88956 8.58428 7.29427 8.31191 7.64205 7.96413C7.98982 7.61636 8.26219 7.21319 8.45916 6.75462C8.65613 6.29297 8.75308 5.80054 8.75 5.27734C8.74692 4.75107 8.6469 4.2571 8.44993 3.79545C8.25296 3.33381 7.98059 2.9291 7.63281 2.58132C7.28504 2.23355 6.88187 1.96117 6.4233 1.7642C5.96473 1.56723 5.4723 1.46875 4.94602 1.46875C4.42282 1.46875 3.93194 1.56723 3.47337 1.7642C3.0148 1.96117 2.61162 2.23508 2.26385 2.58594C1.91607 2.93371 1.64216 3.33842 1.44212 3.80007C1.24515 4.25864 1.14512 4.75107 1.14205 5.27734C1.13897 5.79747 1.23591 6.28835 1.43288 6.75C1.62985 7.20857 1.90223 7.61174 2.25 7.95952C2.60085 8.30729 3.00556 8.5812 3.46413 8.78125C3.92578 8.97822 4.41974 9.0767 4.94602 9.0767ZM15.9305 10V9.16903L19.0512 5.75284C19.4174 5.35275 19.719 5.00497 19.956 4.70952C20.193 4.41098 20.3684 4.13092 20.4823 3.86932C20.5992 3.60464 20.6577 3.32765 20.6577 3.03835C20.6577 2.70597 20.5777 2.41821 20.4177 2.17507C20.2607 1.93194 20.0453 1.7442 19.7714 1.61186C19.4974 1.47952 19.1897 1.41335 18.8481 1.41335C18.4849 1.41335 18.1679 1.48875 17.8971 1.63956C17.6293 1.78729 17.4216 1.99503 17.2738 2.26278C17.1292 2.53054 17.0569 2.84446 17.0569 3.20454H15.9674C15.9674 2.65057 16.0951 2.1643 16.3506 1.74574C16.606 1.32718 16.9538 1.00095 17.3939 0.767045C17.8371 0.533144 18.3341 0.416193 18.885 0.416193C19.439 0.416193 19.9299 0.533144 20.3577 0.767045C20.7854 1.00095 21.1209 1.31641 21.364 1.71342C21.6072 2.11044 21.7287 2.55208 21.7287 3.03835C21.7287 3.38613 21.6657 3.72621 21.5395 4.05859C21.4164 4.3879 21.2009 4.75568 20.8932 5.16193C20.5885 5.5651 20.1653 6.05753 19.6236 6.6392L17.5001 8.91051V8.98438H21.8949V10H15.9305ZM27.0854 10.1293C26.3898 10.1293 25.7974 9.93999 25.308 9.56143C24.8187 9.17981 24.4447 8.62737 24.1862 7.90412C23.9277 7.17779 23.7984 6.30066 23.7984 5.27273C23.7984 4.25095 23.9277 3.37843 24.1862 2.65518C24.4478 1.92886 24.8233 1.37488 25.3126 0.993252C25.805 0.608546 26.396 0.416193 27.0854 0.416193C27.7747 0.416193 28.3641 0.608546 28.8535 0.993252C29.3459 1.37488 29.7214 1.92886 29.9799 2.65518C30.2415 3.37843 30.3723 4.25095 30.3723 5.27273C30.3723 6.30066 30.243 7.17779 29.9845 7.90412C29.726 8.62737 29.352 9.17981 28.8627 9.56143C28.3733 9.93999 27.7809 10.1293 27.0854 10.1293ZM27.0854 9.11364C27.7747 9.11364 28.3103 8.78125 28.6919 8.11648C29.0735 7.4517 29.2643 6.50379 29.2643 5.27273C29.2643 4.45407 29.1766 3.75698 29.0012 3.18146C28.8288 2.60594 28.5796 2.16738 28.2533 1.86577C27.9302 1.56416 27.5408 1.41335 27.0854 1.41335C26.4021 1.41335 25.8681 1.75035 25.4834 2.42436C25.0987 3.09529 24.9064 4.04474 24.9064 5.27273C24.9064 6.09138 24.9925 6.78693 25.1649 7.35938C25.3372 7.93182 25.585 8.36731 25.9082 8.66584C26.2344 8.96437 26.6268 9.11364 27.0854 9.11364ZM32.3265 10V9.16903L35.4473 5.75284C35.8135 5.35275 36.1151 5.00497 36.3521 4.70952C36.5891 4.41098 36.7645 4.13092 36.8784 3.86932C36.9953 3.60464 37.0538 3.32765 37.0538 3.03835C37.0538 2.70597 36.9738 2.41821 36.8138 2.17507C36.6568 1.93194 36.4414 1.7442 36.1675 1.61186C35.8935 1.47952 35.5858 1.41335 35.2442 1.41335C34.881 1.41335 34.564 1.48875 34.2932 1.63956C34.0254 1.78729 33.8177 1.99503 33.6699 2.26278C33.5253 2.53054 33.453 2.84446 33.453 3.20454H32.3635C32.3635 2.65057 32.4912 2.1643 32.7466 1.74574C33.0021 1.32718 33.3499 1.00095 33.79 0.767045C34.2331 0.533144 34.7302 0.416193 35.2811 0.416193C35.8351 0.416193 36.326 0.533144 36.7537 0.767045C37.1815 1.00095 37.517 1.31641 37.7601 1.71342C38.0033 2.11044 38.1248 2.55208 38.1248 3.03835C38.1248 3.38613 38.0617 3.72621 37.9356 4.05859C37.8125 4.3879 37.597 4.75568 37.2893 5.16193C36.9846 5.5651 36.5614 6.05753 36.0197 6.6392L33.8961 8.91051V8.98438H38.291V10H32.3265ZM40.3976 10V9.16903L43.5184 5.75284C43.8846 5.35275 44.1862 5.00497 44.4232 4.70952C44.6602 4.41098 44.8356 4.13092 44.9495 3.86932C45.0664 3.60464 45.1249 3.32765 45.1249 3.03835C45.1249 2.70597 45.0449 2.41821 44.8849 2.17507C44.7279 1.93194 44.5125 1.7442 44.2385 1.61186C43.9646 1.47952 43.6569 1.41335 43.3153 1.41335C42.9521 1.41335 42.6351 1.48875 42.3643 1.63956C42.0965 1.78729 41.8888 1.99503 41.741 2.26278C41.5964 2.53054 41.5241 2.84446 41.5241 3.20454H40.4346C40.4346 2.65057 40.5623 2.1643 40.8177 1.74574C41.0732 1.32718 41.421 1.00095 41.8611 0.767045C42.3042 0.533144 42.8013 0.416193 43.3522 0.416193C43.9062 0.416193 44.397 0.533144 44.8248 0.767045C45.2526 1.00095 45.5881 1.31641 45.8312 1.71342C46.0744 2.11044 46.1959 2.55208 46.1959 3.03835C46.1959 3.38613 46.1328 3.72621 46.0067 4.05859C45.8836 4.3879 45.6681 4.75568 45.3604 5.16193C45.0557 5.5651 44.6325 6.05753 44.0908 6.6392L41.9672 8.91051V8.98438H46.3621V10H40.3976ZM54.2085 10L51.6233 0.545454H52.7866L54.7625 8.24574H54.8548L56.8676 0.545454H58.1602L60.173 8.24574H60.2653L62.2412 0.545454H63.4045L60.8193 10H59.6375L57.5508 2.46591H57.477L55.3903 10H54.2085ZM65.9728 5.73438V10H64.8833V0.545454H65.9728V4.01705H66.0651C66.2313 3.6508 66.4806 3.35997 66.813 3.14453C67.1484 2.92602 67.5947 2.81676 68.1518 2.81676C68.6349 2.81676 69.0581 2.91371 69.4213 3.1076C69.7845 3.29841 70.0661 3.59233 70.2661 3.98935C70.4692 4.38329 70.5708 4.88494 70.5708 5.49432V10H69.4813V5.56818C69.4813 5.00497 69.3351 4.56948 69.0427 4.26172C68.7534 3.95088 68.3518 3.79545 67.8378 3.79545C67.4808 3.79545 67.1608 3.87086 66.8776 4.02166C66.5975 4.17247 66.376 4.39252 66.2128 4.68182C66.0528 4.97112 65.9728 5.32197 65.9728 5.73438ZM72.764 10V2.90909H73.8534V10H72.764ZM73.3179 1.72727C73.1056 1.72727 72.9225 1.65495 72.7686 1.5103C72.6178 1.36565 72.5424 1.19176 72.5424 0.988636C72.5424 0.785511 72.6178 0.611624 72.7686 0.466974C72.9225 0.322325 73.1056 0.25 73.3179 0.25C73.5303 0.25 73.7119 0.322325 73.8627 0.466974C74.0166 0.611624 74.0935 0.785511 74.0935 0.988636C74.0935 1.19176 74.0166 1.36565 73.8627 1.5103C73.7119 1.65495 73.5303 1.72727 73.3179 1.72727ZM76.0489 10V2.90909H77.1015V3.98011H77.1753C77.3046 3.62926 77.5385 3.34458 77.877 3.12606C78.2156 2.90755 78.5972 2.79829 79.0219 2.79829C79.1019 2.79829 79.202 2.79983 79.322 2.80291C79.442 2.80599 79.5328 2.81061 79.5944 2.81676V3.92472C79.5574 3.91548 79.4728 3.90163 79.3405 3.88317C79.2112 3.86162 79.0742 3.85085 78.9296 3.85085C78.5849 3.85085 78.2771 3.92318 78.0063 4.06783C77.7385 4.2094 77.5262 4.40637 77.3692 4.65874C77.2153 4.90803 77.1384 5.19271 77.1384 5.51278V10H76.0489ZM82.1753 0.545454V10H81.0858V0.545454H82.1753ZM85.1648 10.0739C84.9371 10.0739 84.7417 9.99231 84.5785 9.82919C84.4154 9.66607 84.3339 9.47064 84.3339 9.2429C84.3339 9.01515 84.4154 8.81972 84.5785 8.65661C84.7417 8.49349 84.9371 8.41193 85.1648 8.41193C85.3926 8.41193 85.588 8.49349 85.7511 8.65661C85.9142 8.81972 85.9958 9.01515 85.9958 9.2429C85.9958 9.3937 85.9573 9.5322 85.8804 9.65838C85.8065 9.78456 85.7065 9.88613 85.5803 9.96307C85.4572 10.0369 85.3187 10.0739 85.1648 10.0739ZM92.5426 10H91.3424L94.8139 0.545454H95.9958L99.4674 10H98.2671L95.4418 2.04119H95.3679L92.5426 10ZM92.9858 6.30682H97.8239V7.32244H92.9858V6.30682ZM102.082 0.545454V10H100.992V0.545454H102.082ZM105.367 0.545454V10H104.277V0.545454H105.367ZM111.566 10V0.545454H114.761C115.499 0.545454 116.106 0.671638 116.58 0.924005C117.054 1.17329 117.404 1.51645 117.632 1.95348C117.86 2.39051 117.974 2.88755 117.974 3.4446C117.974 4.00166 117.86 4.49562 117.632 4.92649C117.404 5.35736 117.055 5.6959 116.584 5.94212C116.113 6.18525 115.512 6.30682 114.779 6.30682H112.194V5.27273H114.742C115.247 5.27273 115.653 5.19886 115.961 5.05114C116.272 4.90341 116.497 4.69413 116.635 4.4233C116.777 4.14938 116.847 3.82315 116.847 3.4446C116.847 3.06605 116.777 2.7352 116.635 2.45206C116.493 2.16892 116.267 1.9504 115.956 1.79652C115.646 1.63956 115.235 1.56108 114.724 1.56108H112.711V10H111.566ZM116.016 5.75284L118.343 10H117.014L114.724 5.75284H116.016ZM119.934 10V2.90909H121.023V10H119.934ZM120.488 1.72727C120.276 1.72727 120.092 1.65495 119.938 1.5103C119.788 1.36565 119.712 1.19176 119.712 0.988636C119.712 0.785511 119.788 0.611624 119.938 0.466974C120.092 0.322325 120.276 0.25 120.488 0.25C120.7 0.25 120.882 0.322325 121.033 0.466974C121.186 0.611624 121.263 0.785511 121.263 0.988636C121.263 1.19176 121.186 1.36565 121.033 1.5103C120.882 1.65495 120.7 1.72727 120.488 1.72727ZM126.081 12.8068C125.555 12.8068 125.102 12.7391 124.724 12.6037C124.345 12.4714 124.03 12.2959 123.777 12.0774C123.528 11.862 123.33 11.6312 123.182 11.3849L124.05 10.7756C124.148 10.9048 124.273 11.0526 124.424 11.2188C124.575 11.388 124.781 11.5342 125.042 11.6573C125.307 11.7835 125.653 11.8466 126.081 11.8466C126.653 11.8466 127.126 11.7081 127.498 11.4311C127.871 11.1541 128.057 10.7202 128.057 10.1293V8.68892H127.965C127.885 8.81818 127.771 8.97822 127.623 9.16903C127.478 9.35677 127.269 9.5245 126.995 9.67223C126.724 9.81688 126.358 9.8892 125.896 9.8892C125.324 9.8892 124.81 9.75379 124.354 9.48295C123.902 9.21212 123.544 8.81818 123.279 8.30114C123.017 7.78409 122.886 7.15625 122.886 6.41761C122.886 5.69129 123.014 5.05883 123.27 4.52024C123.525 3.97857 123.881 3.56001 124.336 3.26456C124.792 2.96603 125.318 2.81676 125.915 2.81676C126.377 2.81676 126.743 2.8937 127.014 3.04759C127.287 3.19839 127.497 3.37074 127.641 3.56463C127.789 3.75544 127.903 3.91241 127.983 4.03551H128.094V2.90909H129.146V10.2031C129.146 10.8125 129.008 11.308 128.731 11.6896C128.457 12.0743 128.088 12.3559 127.623 12.5344C127.161 12.716 126.647 12.8068 126.081 12.8068ZM126.044 8.91051C126.481 8.91051 126.85 8.81049 127.152 8.61044C127.454 8.41039 127.683 8.12263 127.84 7.74716C127.997 7.37169 128.075 6.92235 128.075 6.39915C128.075 5.88826 127.998 5.43738 127.845 5.04652C127.691 4.65566 127.463 4.34943 127.161 4.12784C126.86 3.90625 126.487 3.79545 126.044 3.79545C125.582 3.79545 125.198 3.91241 124.89 4.14631C124.585 4.38021 124.356 4.69413 124.202 5.08807C124.051 5.48201 123.976 5.91903 123.976 6.39915C123.976 6.89157 124.053 7.32706 124.207 7.70561C124.364 8.08108 124.595 8.37654 124.899 8.59197C125.207 8.80433 125.589 8.91051 126.044 8.91051ZM132.43 5.73438V10H131.341V0.545454H132.43V4.01705H132.523C132.689 3.6508 132.938 3.35997 133.27 3.14453C133.606 2.92602 134.052 2.81676 134.609 2.81676C135.092 2.81676 135.516 2.91371 135.879 3.1076C136.242 3.29841 136.523 3.59233 136.724 3.98935C136.927 4.38329 137.028 4.88494 137.028 5.49432V10H135.939V5.56818C135.939 5.00497 135.793 4.56948 135.5 4.26172C135.211 3.95088 134.809 3.79545 134.295 3.79545C133.938 3.79545 133.618 3.87086 133.335 4.02166C133.055 4.17247 132.833 4.39252 132.67 4.68182C132.51 4.97112 132.43 5.32197 132.43 5.73438ZM142.305 2.90909V3.83239H138.63V2.90909H142.305ZM139.701 1.21023H140.791V7.96875C140.791 8.27652 140.836 8.50734 140.925 8.66122C141.017 8.81203 141.134 8.91359 141.276 8.96591C141.42 9.01515 141.573 9.03977 141.733 9.03977C141.853 9.03977 141.951 9.03362 142.028 9.02131C142.105 9.00592 142.167 8.99361 142.213 8.98438L142.434 9.96307C142.361 9.99077 142.257 10.0185 142.125 10.0462C141.993 10.0769 141.825 10.0923 141.622 10.0923C141.314 10.0923 141.013 10.0262 140.717 9.89382C140.425 9.76148 140.182 9.5599 139.988 9.28906C139.797 9.01823 139.701 8.67661 139.701 8.2642V1.21023ZM149.04 4.49716L148.061 4.77415C148 4.61103 147.909 4.45253 147.789 4.29865C147.672 4.14169 147.512 4.01243 147.309 3.91087C147.106 3.8093 146.845 3.75852 146.528 3.75852C146.095 3.75852 145.733 3.85855 145.444 4.05859C145.157 4.25556 145.014 4.50639 145.014 4.81108C145.014 5.08191 145.113 5.29581 145.31 5.45277C145.507 5.60973 145.814 5.74053 146.233 5.84517L147.286 6.10369C147.92 6.25758 148.392 6.49302 148.703 6.81001C149.014 7.12393 149.169 7.52865 149.169 8.02415C149.169 8.4304 149.052 8.79356 148.818 9.11364C148.587 9.43371 148.264 9.68608 147.849 9.87074C147.433 10.0554 146.95 10.1477 146.399 10.1477C145.676 10.1477 145.077 9.99077 144.603 9.67685C144.129 9.36293 143.829 8.90436 143.703 8.30114L144.737 8.04261C144.836 8.42424 145.022 8.71046 145.296 8.90128C145.573 9.09209 145.934 9.1875 146.381 9.1875C146.889 9.1875 147.292 9.07978 147.59 8.86435C147.892 8.64583 148.043 8.38423 148.043 8.07955C148.043 7.83333 147.956 7.62713 147.784 7.46094C147.612 7.29167 147.347 7.16548 146.99 7.08239L145.808 6.8054C145.159 6.65152 144.682 6.413 144.377 6.08984C144.076 5.76361 143.925 5.35582 143.925 4.86648C143.925 4.46638 144.037 4.11245 144.262 3.80469C144.49 3.49692 144.799 3.25533 145.19 3.0799C145.584 2.90447 146.03 2.81676 146.528 2.81676C147.23 2.81676 147.781 2.97064 148.181 3.27841C148.584 3.58617 148.871 3.99242 149.04 4.49716ZM155.013 10V0.545454H158.208C158.946 0.545454 159.553 0.671638 160.027 0.924005C160.501 1.17329 160.851 1.51645 161.079 1.95348C161.307 2.39051 161.421 2.88755 161.421 3.4446C161.421 4.00166 161.307 4.49562 161.079 4.92649C160.851 5.35736 160.502 5.6959 160.031 5.94212C159.56 6.18525 158.959 6.30682 158.226 6.30682H155.641V5.27273H158.189C158.694 5.27273 159.1 5.19886 159.408 5.05114C159.719 4.90341 159.943 4.69413 160.082 4.4233C160.224 4.14938 160.294 3.82315 160.294 3.4446C160.294 3.06605 160.224 2.7352 160.082 2.45206C159.94 2.16892 159.714 1.9504 159.403 1.79652C159.092 1.63956 158.682 1.56108 158.171 1.56108H156.158V10H155.013ZM159.463 5.75284L161.79 10H160.46L158.171 5.75284H159.463ZM166.278 10.1477C165.594 10.1477 165.005 9.99692 164.509 9.69531C164.017 9.39062 163.637 8.96591 163.369 8.42116C163.105 7.87334 162.972 7.23627 162.972 6.50994C162.972 5.78362 163.105 5.14347 163.369 4.58949C163.637 4.03243 164.009 3.59848 164.486 3.28764C164.967 2.97372 165.527 2.81676 166.167 2.81676C166.536 2.81676 166.901 2.87831 167.261 3.00142C167.621 3.12453 167.949 3.32457 168.244 3.60156C168.54 3.87547 168.775 4.23864 168.951 4.69105C169.126 5.14347 169.214 5.70052 169.214 6.36222V6.82386H163.748V5.8821H168.106C168.106 5.48201 168.026 5.125 167.866 4.81108C167.709 4.49716 167.484 4.24941 167.192 4.06783C166.902 3.88625 166.561 3.79545 166.167 3.79545C165.733 3.79545 165.357 3.90317 165.04 4.11861C164.726 4.33097 164.485 4.60795 164.316 4.94957C164.146 5.29119 164.062 5.65743 164.062 6.0483V6.67614C164.062 7.21165 164.154 7.6656 164.339 8.038C164.526 8.40732 164.786 8.68892 165.119 8.88281C165.451 9.07363 165.837 9.16903 166.278 9.16903C166.564 9.16903 166.822 9.12902 167.053 9.04901C167.287 8.96591 167.489 8.8428 167.658 8.67969C167.827 8.51349 167.958 8.30729 168.05 8.06108L169.103 8.35653C168.992 8.71354 168.806 9.02746 168.544 9.2983C168.283 9.56605 167.96 9.77533 167.575 9.92614C167.19 10.0739 166.758 10.1477 166.278 10.1477ZM176.094 4.49716L175.115 4.77415C175.053 4.61103 174.963 4.45253 174.843 4.29865C174.726 4.14169 174.566 4.01243 174.363 3.91087C174.159 3.8093 173.899 3.75852 173.582 3.75852C173.148 3.75852 172.787 3.85855 172.497 4.05859C172.211 4.25556 172.068 4.50639 172.068 4.81108C172.068 5.08191 172.167 5.29581 172.364 5.45277C172.561 5.60973 172.868 5.74053 173.287 5.84517L174.339 6.10369C174.973 6.25758 175.446 6.49302 175.757 6.81001C176.068 7.12393 176.223 7.52865 176.223 8.02415C176.223 8.4304 176.106 8.79356 175.872 9.11364C175.641 9.43371 175.318 9.68608 174.903 9.87074C174.487 10.0554 174.004 10.1477 173.453 10.1477C172.73 10.1477 172.131 9.99077 171.657 9.67685C171.183 9.36293 170.883 8.90436 170.757 8.30114L171.791 8.04261C171.89 8.42424 172.076 8.71046 172.35 8.90128C172.627 9.09209 172.988 9.1875 173.435 9.1875C173.942 9.1875 174.346 9.07978 174.644 8.86435C174.946 8.64583 175.097 8.38423 175.097 8.07955C175.097 7.83333 175.01 7.62713 174.838 7.46094C174.666 7.29167 174.401 7.16548 174.044 7.08239L172.862 6.8054C172.213 6.65152 171.736 6.413 171.431 6.08984C171.129 5.76361 170.979 5.35582 170.979 4.86648C170.979 4.46638 171.091 4.11245 171.316 3.80469C171.543 3.49692 171.853 3.25533 172.244 3.0799C172.638 2.90447 173.084 2.81676 173.582 2.81676C174.284 2.81676 174.835 2.97064 175.235 3.27841C175.638 3.58617 175.924 3.99242 176.094 4.49716ZM181.036 10.1477C180.353 10.1477 179.763 9.99692 179.268 9.69531C178.775 9.39062 178.395 8.96591 178.128 8.42116C177.863 7.87334 177.731 7.23627 177.731 6.50994C177.731 5.78362 177.863 5.14347 178.128 4.58949C178.395 4.03243 178.768 3.59848 179.245 3.28764C179.725 2.97372 180.285 2.81676 180.925 2.81676C181.295 2.81676 181.659 2.87831 182.019 3.00142C182.379 3.12453 182.707 3.32457 183.003 3.60156C183.298 3.87547 183.534 4.23864 183.709 4.69105C183.884 5.14347 183.972 5.70052 183.972 6.36222V6.82386H178.506V5.8821H182.864C182.864 5.48201 182.784 5.125 182.624 4.81108C182.467 4.49716 182.242 4.24941 181.95 4.06783C181.661 3.88625 181.319 3.79545 180.925 3.79545C180.491 3.79545 180.116 3.90317 179.799 4.11861C179.485 4.33097 179.243 4.60795 179.074 4.94957C178.905 5.29119 178.82 5.65743 178.82 6.0483V6.67614C178.82 7.21165 178.912 7.6656 179.097 8.038C179.285 8.40732 179.545 8.68892 179.877 8.88281C180.21 9.07363 180.596 9.16903 181.036 9.16903C181.322 9.16903 181.581 9.12902 181.812 9.04901C182.045 8.96591 182.247 8.8428 182.416 8.67969C182.586 8.51349 182.716 8.30729 182.809 8.06108L183.861 8.35653C183.75 8.71354 183.564 9.02746 183.303 9.2983C183.041 9.56605 182.718 9.77533 182.333 9.92614C181.949 10.0739 181.516 10.1477 181.036 10.1477ZM185.829 10V2.90909H186.882V3.98011H186.956C187.085 3.62926 187.319 3.34458 187.658 3.12606C187.996 2.90755 188.378 2.79829 188.802 2.79829C188.882 2.79829 188.982 2.79983 189.102 2.80291C189.222 2.80599 189.313 2.81061 189.375 2.81676V3.92472C189.338 3.91548 189.253 3.90163 189.121 3.88317C188.992 3.86162 188.855 3.85085 188.71 3.85085C188.365 3.85085 188.058 3.92318 187.787 4.06783C187.519 4.2094 187.307 4.40637 187.15 4.65874C186.996 4.90803 186.919 5.19271 186.919 5.51278V10H185.829ZM196.88 2.90909L194.258 10H193.15L190.528 2.90909H191.71L193.667 8.55966H193.741L195.699 2.90909H196.88ZM201.238 10.1477C200.554 10.1477 199.965 9.99692 199.469 9.69531C198.977 9.39062 198.597 8.96591 198.329 8.42116C198.064 7.87334 197.932 7.23627 197.932 6.50994C197.932 5.78362 198.064 5.14347 198.329 4.58949C198.597 4.03243 198.969 3.59848 199.446 3.28764C199.926 2.97372 200.487 2.81676 201.127 2.81676C201.496 2.81676 201.861 2.87831 202.221 3.00142C202.581 3.12453 202.909 3.32457 203.204 3.60156C203.5 3.87547 203.735 4.23864 203.91 4.69105C204.086 5.14347 204.174 5.70052 204.174 6.36222V6.82386H198.708V5.8821H203.066C203.066 5.48201 202.986 5.125 202.826 4.81108C202.669 4.49716 202.444 4.24941 202.152 4.06783C201.862 3.88625 201.521 3.79545 201.127 3.79545C200.693 3.79545 200.317 3.90317 200 4.11861C199.686 4.33097 199.445 4.60795 199.276 4.94957C199.106 5.29119 199.022 5.65743 199.022 6.0483V6.67614C199.022 7.21165 199.114 7.6656 199.299 8.038C199.486 8.40732 199.746 8.68892 200.079 8.88281C200.411 9.07363 200.797 9.16903 201.238 9.16903C201.524 9.16903 201.782 9.12902 202.013 9.04901C202.247 8.96591 202.449 8.8428 202.618 8.67969C202.787 8.51349 202.918 8.30729 203.01 8.06108L204.063 8.35653C203.952 8.71354 203.766 9.02746 203.504 9.2983C203.243 9.56605 202.919 9.77533 202.535 9.92614C202.15 10.0739 201.718 10.1477 201.238 10.1477ZM208.708 10.1477C208.118 10.1477 207.596 9.99846 207.144 9.69993C206.691 9.39832 206.337 8.9736 206.082 8.42578C205.826 7.87488 205.699 7.22396 205.699 6.47301C205.699 5.72822 205.826 5.08191 206.082 4.53409C206.337 3.98627 206.693 3.56309 207.148 3.26456C207.604 2.96603 208.13 2.81676 208.727 2.81676C209.189 2.81676 209.553 2.8937 209.821 3.04759C210.092 3.19839 210.298 3.37074 210.44 3.56463C210.584 3.75544 210.697 3.91241 210.777 4.03551H210.869V0.545454H211.958V10H210.906V8.91051H210.777C210.697 9.03977 210.583 9.20289 210.435 9.39986C210.287 9.59375 210.077 9.76764 209.803 9.92152C209.529 10.0723 209.164 10.1477 208.708 10.1477ZM208.856 9.16903C209.293 9.16903 209.663 9.05516 209.964 8.82741C210.266 8.59659 210.495 8.27805 210.652 7.8718C210.809 7.46248 210.887 6.99006 210.887 6.45455C210.887 5.92519 210.811 5.462 210.657 5.06499C210.503 4.66489 210.275 4.35405 209.973 4.13246C209.672 3.90779 209.299 3.79545 208.856 3.79545C208.395 3.79545 208.01 3.91394 207.702 4.15092C207.397 4.38482 207.168 4.70336 207.014 5.10653C206.863 5.50663 206.788 5.95597 206.788 6.45455C206.788 6.95928 206.865 7.41785 207.019 7.83026C207.176 8.23958 207.407 8.56581 207.711 8.80895C208.019 9.04901 208.401 9.16903 208.856 9.16903ZM215.099 10.0739C214.871 10.0739 214.676 9.99231 214.513 9.82919C214.35 9.66607 214.268 9.47064 214.268 9.2429C214.268 9.01515 214.35 8.81972 214.513 8.65661C214.676 8.49349 214.871 8.41193 215.099 8.41193C215.327 8.41193 215.522 8.49349 215.685 8.65661C215.849 8.81972 215.93 9.01515 215.93 9.2429C215.93 9.3937 215.892 9.5322 215.815 9.65838C215.741 9.78456 215.641 9.88613 215.515 9.96307C215.392 10.0369 215.253 10.0739 215.099 10.0739ZM223.234 0.545454V10H222.089V0.545454H223.234ZM226.671 0.545454V10H225.582V0.545454H226.671ZM229.956 0.545454V10H228.867V0.545454H229.956ZM236.621 7.10085V2.90909H237.71V10H236.621V8.79972H236.547C236.381 9.1598 236.122 9.46603 235.771 9.71839C235.42 9.96768 234.977 10.0923 234.442 10.0923C233.998 10.0923 233.605 9.99538 233.26 9.80149C232.915 9.60452 232.644 9.30907 232.447 8.91513C232.25 8.51811 232.152 8.01799 232.152 7.41477V2.90909H233.241V7.34091C233.241 7.85795 233.386 8.27036 233.675 8.57812C233.968 8.88589 234.34 9.03977 234.792 9.03977C235.063 9.03977 235.339 8.97053 235.619 8.83203C235.902 8.69354 236.139 8.48118 236.33 8.19496C236.524 7.90874 236.621 7.54403 236.621 7.10085ZM244.928 4.49716L243.95 4.77415C243.888 4.61103 243.797 4.45253 243.677 4.29865C243.56 4.14169 243.4 4.01243 243.197 3.91087C242.994 3.8093 242.734 3.75852 242.417 3.75852C241.983 3.75852 241.621 3.85855 241.332 4.05859C241.046 4.25556 240.903 4.50639 240.903 4.81108C240.903 5.08191 241.001 5.29581 241.198 5.45277C241.395 5.60973 241.703 5.74053 242.121 5.84517L243.174 6.10369C243.808 6.25758 244.28 6.49302 244.591 6.81001C244.902 7.12393 245.058 7.52865 245.058 8.02415C245.058 8.4304 244.941 8.79356 244.707 9.11364C244.476 9.43371 244.153 9.68608 243.737 9.87074C243.322 10.0554 242.839 10.1477 242.288 10.1477C241.564 10.1477 240.966 9.99077 240.492 9.67685C240.018 9.36293 239.718 8.90436 239.592 8.30114L240.626 8.04261C240.724 8.42424 240.91 8.71046 241.184 8.90128C241.461 9.09209 241.823 9.1875 242.269 9.1875C242.777 9.1875 243.18 9.07978 243.479 8.86435C243.78 8.64583 243.931 8.38423 243.931 8.07955C243.931 7.83333 243.845 7.62713 243.673 7.46094C243.5 7.29167 243.236 7.16548 242.879 7.08239L241.697 6.8054C241.047 6.65152 240.57 6.413 240.266 6.08984C239.964 5.76361 239.813 5.35582 239.813 4.86648C239.813 4.46638 239.926 4.11245 240.15 3.80469C240.378 3.49692 240.687 3.25533 241.078 3.0799C241.472 2.90447 241.918 2.81676 242.417 2.81676C243.119 2.81676 243.67 2.97064 244.07 3.27841C244.473 3.58617 244.759 3.99242 244.928 4.49716ZM249.981 2.90909V3.83239H246.307V2.90909H249.981ZM247.378 1.21023H248.467V7.96875C248.467 8.27652 248.512 8.50734 248.601 8.66122C248.693 8.81203 248.81 8.91359 248.952 8.96591C249.097 9.01515 249.249 9.03977 249.409 9.03977C249.529 9.03977 249.627 9.03362 249.704 9.02131C249.781 9.00592 249.843 8.99361 249.889 8.98438L250.111 9.96307C250.037 9.99077 249.934 10.0185 249.801 10.0462C249.669 10.0769 249.501 10.0923 249.298 10.0923C248.99 10.0923 248.689 10.0262 248.393 9.89382C248.101 9.76148 247.858 9.5599 247.664 9.28906C247.473 9.01823 247.378 8.67661 247.378 8.2642V1.21023ZM251.82 10V2.90909H252.873V3.98011H252.947C253.076 3.62926 253.31 3.34458 253.648 3.12606C253.987 2.90755 254.368 2.79829 254.793 2.79829C254.873 2.79829 254.973 2.79983 255.093 2.80291C255.213 2.80599 255.304 2.81061 255.366 2.81676V3.92472C255.329 3.91548 255.244 3.90163 255.112 3.88317C254.982 3.86162 254.846 3.85085 254.701 3.85085C254.356 3.85085 254.048 3.92318 253.778 4.06783C253.51 4.2094 253.297 4.40637 253.141 4.65874C252.987 4.90803 252.91 5.19271 252.91 5.51278V10H251.82ZM258.944 10.1662C258.494 10.1662 258.087 10.0816 257.72 9.91229C257.354 9.73994 257.063 9.49219 256.848 9.16903C256.632 8.8428 256.525 8.44886 256.525 7.98722C256.525 7.58097 256.605 7.25166 256.765 6.99929C256.925 6.74384 257.139 6.5438 257.406 6.39915C257.674 6.2545 257.97 6.14678 258.293 6.07599C258.619 6.00213 258.947 5.94366 259.276 5.90057C259.707 5.84517 260.056 5.80362 260.324 5.77592C260.595 5.74515 260.792 5.69437 260.915 5.62358C261.041 5.55279 261.104 5.42969 261.104 5.25426V5.21733C261.104 4.76184 260.98 4.40791 260.73 4.15554C260.484 3.90317 260.11 3.77699 259.609 3.77699C259.088 3.77699 258.681 3.89086 258.385 4.11861C258.09 4.34635 257.882 4.58949 257.762 4.84801L256.728 4.47869C256.913 4.04782 257.159 3.71236 257.466 3.4723C257.777 3.22917 258.116 3.0599 258.482 2.96449C258.851 2.866 259.215 2.81676 259.572 2.81676C259.799 2.81676 260.061 2.84446 260.356 2.89986C260.655 2.95218 260.943 3.06143 261.22 3.22763C261.5 3.39382 261.732 3.64465 261.917 3.98011C262.101 4.31558 262.194 4.76491 262.194 5.32812V10H261.104V9.03977H261.049C260.975 9.19366 260.852 9.35831 260.68 9.53374C260.507 9.70916 260.278 9.85843 259.992 9.98153C259.705 10.1046 259.356 10.1662 258.944 10.1662ZM259.11 9.1875C259.541 9.1875 259.904 9.10286 260.199 8.93359C260.498 8.76432 260.723 8.54581 260.873 8.27805C261.027 8.0103 261.104 7.72869 261.104 7.43324V6.43608C261.058 6.49148 260.957 6.54226 260.8 6.58842C260.646 6.63151 260.467 6.66998 260.264 6.70383C260.064 6.73461 259.869 6.76231 259.678 6.78693C259.49 6.80848 259.338 6.82694 259.221 6.84233C258.938 6.87926 258.673 6.93928 258.427 7.02237C258.184 7.10239 257.987 7.22396 257.836 7.38707C257.688 7.54711 257.614 7.76562 257.614 8.04261C257.614 8.42116 257.754 8.70739 258.034 8.90128C258.317 9.09209 258.676 9.1875 259.11 9.1875ZM267.466 2.90909V3.83239H263.791V2.90909H267.466ZM264.862 1.21023H265.952V7.96875C265.952 8.27652 265.997 8.50734 266.086 8.66122C266.178 8.81203 266.295 8.91359 266.437 8.96591C266.581 9.01515 266.734 9.03977 266.894 9.03977C267.014 9.03977 267.112 9.03362 267.189 9.02131C267.266 9.00592 267.328 8.99361 267.374 8.98438L267.595 9.96307C267.522 9.99077 267.418 10.0185 267.286 10.0462C267.154 10.0769 266.986 10.0923 266.783 10.0923C266.475 10.0923 266.174 10.0262 265.878 9.89382C265.586 9.76148 265.343 9.5599 265.149 9.28906C264.958 9.01823 264.862 8.67661 264.862 8.2642V1.21023ZM269.305 10V2.90909H270.394V10H269.305ZM269.859 1.72727C269.647 1.72727 269.463 1.65495 269.31 1.5103C269.159 1.36565 269.083 1.19176 269.083 0.988636C269.083 0.785511 269.159 0.611624 269.31 0.466974C269.463 0.322325 269.647 0.25 269.859 0.25C270.071 0.25 270.253 0.322325 270.404 0.466974C270.558 0.611624 270.635 0.785511 270.635 0.988636C270.635 1.19176 270.558 1.36565 270.404 1.5103C270.253 1.65495 270.071 1.72727 269.859 1.72727ZM275.471 10.1477C274.83 10.1477 274.269 9.99538 273.786 9.6907C273.305 9.38601 272.93 8.95975 272.659 8.41193C272.391 7.86411 272.258 7.22396 272.258 6.49148C272.258 5.75284 272.391 5.10807 272.659 4.55717C272.93 4.00627 273.305 3.57848 273.786 3.27379C274.269 2.96911 274.83 2.81676 275.471 2.81676C276.111 2.81676 276.671 2.96911 277.151 3.27379C277.634 3.57848 278.01 4.00627 278.277 4.55717C278.548 5.10807 278.684 5.75284 278.684 6.49148C278.684 7.22396 278.548 7.86411 278.277 8.41193C278.01 8.95975 277.634 9.38601 277.151 9.6907C276.671 9.99538 276.111 10.1477 275.471 10.1477ZM275.471 9.16903C275.957 9.16903 276.357 9.04439 276.671 8.7951C276.985 8.54581 277.217 8.21804 277.368 7.81179C277.519 7.40554 277.594 6.96544 277.594 6.49148C277.594 6.01752 277.519 5.57588 277.368 5.16655C277.217 4.75722 276.985 4.42637 276.671 4.17401C276.357 3.92164 275.957 3.79545 275.471 3.79545C274.984 3.79545 274.584 3.92164 274.27 4.17401C273.956 4.42637 273.724 4.75722 273.573 5.16655C273.422 5.57588 273.347 6.01752 273.347 6.49148C273.347 6.96544 273.422 7.40554 273.573 7.81179C273.724 8.21804 273.956 8.54581 274.27 8.7951C274.584 9.04439 274.984 9.16903 275.471 9.16903ZM281.636 5.73438V10H280.547V2.90909H281.599V4.01705H281.692C281.858 3.65696 282.11 3.36766 282.449 3.14915C282.787 2.92756 283.224 2.81676 283.76 2.81676C284.24 2.81676 284.66 2.91525 285.02 3.11222C285.38 3.30611 285.66 3.60156 285.86 3.99858C286.06 4.39252 286.16 4.8911 286.16 5.49432V10H285.071V5.56818C285.071 5.01113 284.926 4.57718 284.637 4.26633C284.348 3.95241 283.951 3.79545 283.446 3.79545C283.098 3.79545 282.787 3.87086 282.513 4.02166C282.243 4.17247 282.029 4.39252 281.872 4.68182C281.715 4.97112 281.636 5.32197 281.636 5.73438ZM293.374 4.49716L292.395 4.77415C292.334 4.61103 292.243 4.45253 292.123 4.29865C292.006 4.14169 291.846 4.01243 291.643 3.91087C291.44 3.8093 291.18 3.75852 290.863 3.75852C290.429 3.75852 290.067 3.85855 289.778 4.05859C289.492 4.25556 289.348 4.50639 289.348 4.81108C289.348 5.08191 289.447 5.29581 289.644 5.45277C289.841 5.60973 290.149 5.74053 290.567 5.84517L291.62 6.10369C292.254 6.25758 292.726 6.49302 293.037 6.81001C293.348 7.12393 293.503 7.52865 293.503 8.02415C293.503 8.4304 293.386 8.79356 293.152 9.11364C292.922 9.43371 292.598 9.68608 292.183 9.87074C291.767 10.0554 291.284 10.1477 290.733 10.1477C290.01 10.1477 289.412 9.99077 288.938 9.67685C288.464 9.36293 288.164 8.90436 288.037 8.30114L289.071 8.04261C289.17 8.42424 289.356 8.71046 289.63 8.90128C289.907 9.09209 290.269 9.1875 290.715 9.1875C291.223 9.1875 291.626 9.07978 291.924 8.86435C292.226 8.64583 292.377 8.38423 292.377 8.07955C292.377 7.83333 292.291 7.62713 292.118 7.46094C291.946 7.29167 291.681 7.16548 291.324 7.08239L290.142 6.8054C289.493 6.65152 289.016 6.413 288.711 6.08984C288.41 5.76361 288.259 5.35582 288.259 4.86648C288.259 4.46638 288.371 4.11245 288.596 3.80469C288.824 3.49692 289.133 3.25533 289.524 3.0799C289.918 2.90447 290.364 2.81676 290.863 2.81676C291.564 2.81676 292.115 2.97064 292.515 3.27841C292.918 3.58617 293.205 3.99242 293.374 4.49716ZM299.347 10V0.545454H300.437V4.03551H300.529C300.609 3.91241 300.72 3.75544 300.861 3.56463C301.006 3.37074 301.212 3.19839 301.48 3.04759C301.751 2.8937 302.117 2.81676 302.579 2.81676C303.176 2.81676 303.702 2.96603 304.158 3.26456C304.613 3.56309 304.969 3.98627 305.224 4.53409C305.479 5.08191 305.607 5.72822 305.607 6.47301C305.607 7.22396 305.479 7.87488 305.224 8.42578C304.969 8.9736 304.615 9.39832 304.162 9.69993C303.71 9.99846 303.188 10.1477 302.597 10.1477C302.142 10.1477 301.777 10.0723 301.503 9.92152C301.229 9.76764 301.018 9.59375 300.871 9.39986C300.723 9.20289 300.609 9.03977 300.529 8.91051H300.4V10H299.347ZM300.418 6.45455C300.418 6.99006 300.497 7.46248 300.654 7.8718C300.811 8.27805 301.04 8.59659 301.342 8.82741C301.643 9.05516 302.012 9.16903 302.449 9.16903C302.905 9.16903 303.285 9.04901 303.59 8.80895C303.898 8.56581 304.128 8.23958 304.282 7.83026C304.439 7.41785 304.518 6.95928 304.518 6.45455C304.518 5.95597 304.441 5.50663 304.287 5.10653C304.136 4.70336 303.907 4.38482 303.599 4.15092C303.294 3.91394 302.911 3.79545 302.449 3.79545C302.006 3.79545 301.634 3.90779 301.332 4.13246C301.031 4.35405 300.803 4.66489 300.649 5.06499C300.495 5.462 300.418 5.92519 300.418 6.45455ZM307.922 12.6591C307.737 12.6591 307.572 12.6437 307.428 12.6129C307.283 12.5852 307.183 12.5575 307.127 12.5298L307.404 11.5696C307.669 11.6373 307.903 11.6619 308.106 11.6435C308.309 11.625 308.489 11.5342 308.646 11.3711C308.806 11.2111 308.953 10.951 309.085 10.5909L309.288 10.0369L306.666 2.90909H307.848L309.805 8.55966H309.879L311.836 2.90909H313.018L310.008 11.0341C309.873 11.4003 309.705 11.7035 309.505 11.9435C309.305 12.1867 309.073 12.3667 308.808 12.4837C308.546 12.6006 308.251 12.6591 307.922 12.6591Z" fill="#1F1F1F"/>
</svg>
